<svg xmlns="http://www.w3.org/2000/svg" id="ARTWORK" x="0px" y="0px" viewBox="0 0 1269 448"><style>.st0{fill:none;} .st1{fill:#212121;} .st2{fill:#EEEEEE;} .st3{fill:#00A7F7;} .st4{fill:#616161;} .st5{fill:#FFFFFF;} .st6{fill:#0F9D58;} .st7{opacity:0.54;fill:#fff;} .st8{fill:#9C27B0;} .st9{fill:#BDBDBD;} .st10{fill:#FF5722;} .st11{fill:url(#SVGID_1_);} .st12{fill:url(#SVGID_2_);} .st13{fill:url(#SVGID_4_);} .st14{fill:url(#SVGID_5_);} .st15{opacity:0.1;} .st16{opacity:7.000000e-02;} .st17{opacity:0.3;fill:#FFFFFF;} .st18{opacity:0;fill:#FFFFFF;} .st19{fill:url(#SVGID_6_);} .st20{fill:url(#SVGID_7_);} .st21{fill:url(#SVGID_8_);} .st22{fill:url(#SVGID_9_);} .st23{fill:#FF1744;} .st24{fill:#039BE5;} .st25{fill:#E0E0E0;} .st26{fill:url(#SVGID_10_);} .st27{fill:url(#SVGID_11_);} .st28{fill:url(#SVGID_12_);} .st29{fill:url(#SVGID_13_);} .st30{opacity:0.25;fill:#FFFFFF;} .st31{opacity:0.7;} .st32{fill:url(#SVGID_14_);} .st33{fill:url(#SVGID_15_);} .st34{fill:url(#SVGID_16_);} .st35{fill:url(#SVGID_17_);} .st36{fill:url(#SVGID_18_);} .st37{fill:url(#SVGID_19_);} .st38{fill:url(#SVGID_20_);} .st39{fill:url(#SVGID_21_);} .st40{fill:url(#SVGID_22_);} .st41{fill:url(#SVGID_23_);} .st42{fill:url(#SVGID_24_);} .st43{fill:url(#SVGID_25_);} .st44{fill:url(#SVGID_26_);} .st45{fill:url(#SVGID_27_);} .st46{fill:url(#SVGID_28_);} .st47{fill:url(#SVGID_29_);} .st48{fill:url(#SVGID_30_);} .st49{fill:url(#SVGID_31_);} .st50{fill:url(#SVGID_32_);} .st51{fill:url(#SVGID_33_);} .st52{fill:url(#SVGID_34_);} .st53{fill:url(#SVGID_35_);} .st54{fill:url(#SVGID_36_);} .st55{fill:url(#SVGID_37_);} .st56{fill:url(#SVGID_38_);} .st57{fill:url(#SVGID_39_);} .st58{fill:url(#SVGID_40_);} .st59{fill:url(#SVGID_41_);} .st60{fill:url(#SVGID_42_);} .st61{fill:url(#SVGID_43_);} .st62{fill:url(#SVGID_44_);} .st63{fill:url(#SVGID_45_);} .st64{fill:url(#SVGID_46_);} .st65{fill:url(#SVGID_47_);} .st66{fill:url(#SVGID_48_);} .st67{fill:url(#SVGID_49_);} .st68{fill:url(#SVGID_50_);} .st69{fill:url(#SVGID_51_);} .st70{fill:url(#SVGID_52_);} .st71{fill:url(#SVGID_53_);} .st72{fill:url(#SVGID_54_);} .st73{fill:url(#SVGID_55_);} .st74{fill:url(#SVGID_56_);} .st75{fill:url(#SVGID_57_);} .st76{fill:url(#SVGID_58_);} .st77{fill:url(#SVGID_59_);} .st78{fill:url(#SVGID_60_);} .st79{fill:url(#SVGID_61_);} .st80{fill:url(#SVGID_62_);} .st81{fill:url(#SVGID_63_);} .st82{fill:url(#SVGID_64_);} .st83{fill:url(#SVGID_65_);} .st84{fill:url(#SVGID_66_);} .st85{fill:url(#SVGID_67_);} .st86{fill:url(#SVGID_68_);} .st87{fill:url(#SVGID_69_);} .st88{fill:url(#SVGID_70_);} .st89{fill:url(#SVGID_71_);} .st90{fill:url(#SVGID_72_);} .st91{fill:url(#SVGID_73_);} .st92{fill:url(#SVGID_74_);} .st93{fill:url(#SVGID_75_);} .st94{fill:url(#SVGID_76_);} .st95{fill:url(#SVGID_77_);} .st96{fill:url(#SVGID_78_);} .st97{fill:url(#SVGID_79_);} .st98{fill:url(#SVGID_80_);} .st99{fill:url(#SVGID_81_);} .st100{fill:url(#SVGID_82_);} .st101{fill:url(#SVGID_83_);} .st102{fill:url(#SVGID_84_);} .st103{fill:url(#SVGID_85_);} .st104{fill:url(#SVGID_86_);} .st105{fill:url(#SVGID_87_);} .st106{fill:url(#SVGID_88_);} .st107{fill:url(#SVGID_89_);} .st108{fill:url(#SVGID_90_);} .st109{fill:url(#SVGID_91_);} .st110{fill:url(#SVGID_92_);} .st111{fill:url(#SVGID_93_);} .st112{fill:#3F2291;} .st113{fill:url(#SVGID_94_);} .st114{opacity:0.1;fill:#FFFFFF;} .st115{fill:#D03CE0;} .st116{fill:#9C0ED6;} .st117{opacity:0.15;fill:#FFFFFF;} .st118{fill:url(#SVGID_95_);} .st119{fill:#FAFAFA;} .st120{fill:#01579B;} .st121{fill:url(#SVGID_96_);} .st122{fill:#009BF0;} .st123{fill:#40DCFF;} .st124{fill:url(#SVGID_97_);} .st125{opacity:0.2;fill:#FFFFFF;} .st126{clip-path:url(#SVGID_99_);} .st127{fill:url(#SVGID_100_);} .st128{fill:url(#SVGID_101_);} .st129{clip-path:url(#SVGID_103_);} .st130{fill:#730743;} .st131{fill:url(#SVGID_104_);} .st132{fill:#F70031;} .st133{fill:#CF0045;} .st134{fill:url(#SVGID_105_);} .st135{fill:url(#SVGID_106_);} .st136{fill:url(#SVGID_107_);} .st137{fill:url(#SVGID_108_);} .st138{fill:#097138;} .st139{fill:url(#SVGID_109_);} .st140{opacity:0;fill-rule:evenodd;clip-rule:evenodd;} .st141{fill-rule:evenodd;clip-rule:evenodd;} .st142{opacity:0;} .st143{fill:url(#SVGID_110_);} .st144{fill:url(#SVGID_111_);} .st145{fill:url(#SVGID_112_);} .st146{fill:url(#SVGID_113_);} .st147{opacity:0.25;} .st148{fill:#231F20;} .st149{opacity:0.1;fill:#231F20;} .st150{opacity:7.000000e-02;fill:#231F20;} .st151{fill:url(#SVGID_114_);} .st152{fill:url(#SVGID_115_);} .st153{fill:url(#SVGID_116_);} .st154{fill:url(#SVGID_117_);} .st155{fill:url(#SVGID_118_);} .st156{fill:url(#SVGID_119_);} .st157{fill:url(#SVGID_120_);} .st158{fill:url(#SVGID_121_);} .st159{fill:url(#SVGID_122_);} .st160{fill:url(#SVGID_123_);} .st161{fill:url(#SVGID_124_);} .st162{fill:url(#SVGID_125_);} .st163{opacity:0.2;enable-background:new ;} .st164{fill:#F1592B;} .st165{fill:url(#SVGID_126_);} .st166{fill:url(#SVGID_127_);} .st167{clip-path:url(#SVGID_129_);} .st168{fill:url(#SVGID_130_);} .st169{fill:url(#SVGID_131_);} .st170{fill:url(#SVGID_132_);} .st171{fill:url(#SVGID_133_);} .st172{fill:url(#SVGID_134_);} .st173{fill:#00B359;} .st174{fill:url(#SVGID_135_);} .st175{fill:#00E26B;} .st176{opacity:0.15;fill:#231F20;} .st177{fill:#F4481E;} .st178{fill:url(#SVGID_136_);} .st179{fill:#FFD119;} .st180{fill:#FF8C00;} .st181{fill:url(#SVGID_137_);} .st182{fill:url(#SVGID_138_);} .st183{fill:url(#SVGID_139_);} .st184{fill:url(#SVGID_140_);} .st185{fill:url(#SVGID_141_);} .st186{fill:url(#SVGID_142_);} .st187{fill:url(#SVGID_143_);} .st188{fill:url(#SVGID_144_);} .st189{fill:url(#SVGID_145_);} .st190{fill:url(#SVGID_146_);} .st191{fill:url(#SVGID_147_);} .st192{fill:url(#SVGID_148_);} .st193{fill:url(#SVGID_149_);} .st194{fill:url(#SVGID_150_);} .st195{fill:url(#SVGID_151_);} .st196{fill:url(#SVGID_152_);} .st197{fill:url(#SVGID_153_);} .st198{fill:url(#SVGID_154_);} .st199{fill:url(#SVGID_155_);} .st200{fill:url(#SVGID_156_);} .st201{fill:url(#SVGID_157_);} .st202{fill:url(#SVGID_158_);} .st203{fill:url(#SVGID_159_);} .st204{fill:url(#SVGID_160_);} .st205{fill:url(#SVGID_161_);}</style><rect id="XMLID_352_" width="1012.6" height="192" x="128" y="128" class="st0"/><path d="M344.1,206.5c-18.7,0-33.9,14.2-33.9,33.8c0,19.5,15.2,33.8,33.9,33.8c18.7,0,33.9-14.3,33.9-33.8 C378.1,220.7,362.8,206.5,344.1,206.5z M344.1,260.7c-10.2,0-19.1-8.4-19.1-20.5c0-12.2,8.8-20.5,19.1-20.5s19.1,8.3,19.1,20.5 C363.2,252.3,354.4,260.7,344.1,260.7z M270.1,206.5c-18.7,0-33.9,14.2-33.9,33.8c0,19.5,15.2,33.8,33.9,33.8 c18.7,0,33.9-14.3,33.9-33.8C304,220.7,288.8,206.5,270.1,206.5z M270.1,260.7c-10.2,0-19.1-8.4-19.1-20.5 c0-12.2,8.8-20.5,19.1-20.5c10.2,0,19.1,8.3,19.1,20.5C289.2,252.3,280.4,260.7,270.1,260.7z M182.1,216.8v14.3h34.3 c-1,8.1-3.7,14-7.8,18c-5,5-12.8,10.5-26.5,10.5c-21.1,0-37.6-17-37.6-38.1c0-21.1,16.5-38.1,37.6-38.1c11.4,0,19.7,4.5,25.9,10.2 l10.1-10.1c-8.6-8.2-20-14.5-36-14.5c-28.9,0-53.3,23.6-53.3,52.5c0,28.9,24.3,52.5,53.3,52.5c15.6,0,27.4-5.1,36.6-14.7 c9.5-9.5,12.4-22.8,12.4-33.5c0-3.3-0.3-6.4-0.8-9H182.1z M542.1,228c-2.8-7.6-11.4-21.5-28.9-21.5c-17.4,0-31.9,13.7-31.9,33.8 c0,18.9,14.3,33.8,33.5,33.8c15.5,0,24.4-9.5,28.2-15l-11.5-7.7c-3.8,5.6-9.1,9.3-16.6,9.3c-7.6,0-12.9-3.5-16.4-10.2l45.2-18.7 L542.1,228z M496,239.2c-0.4-13.1,10.1-19.7,17.7-19.7c5.9,0,10.9,2.9,12.5,7.2L496,239.2z M459.3,272h14.8v-99.3h-14.8V272z M435,214h-0.5c-3.3-4-9.7-7.6-17.8-7.6c-16.9,0-32.4,14.8-32.4,33.9c0,18.9,15.5,33.7,32.4,33.7c8.1,0,14.5-3.6,17.8-7.7h0.5v4.9 c0,12.9-6.9,19.8-18,19.8c-9.1,0-14.7-6.5-17-12l-12.9,5.4c3.7,9,13.6,20,30,20c17.4,0,32.1-10.2,32.1-35.2v-60.7H435V214z M417.9,260.7c-10.2,0-18.8-8.6-18.8-20.4c0-11.9,8.6-20.6,18.8-20.6c10.1,0,18,8.7,18,20.6C436,252.2,428,260.7,417.9,260.7z M611.7,172.7h-35.5V272H591v-37.6h20.7c16.4,0,32.6-11.9,32.6-30.8C644.2,184.6,628.1,172.7,611.7,172.7z M612,220.5H591v-34H612 c11.1,0,17.4,9.2,17.4,17C629.4,211.2,623.1,220.5,612,220.5z M703.7,206.3c-10.7,0-21.9,4.7-26.5,15.2l13.2,5.5 c2.8-5.5,8.1-7.3,13.5-7.3c7.7,0,15.5,4.6,15.6,12.8v1c-2.7-1.5-8.4-3.8-15.5-3.8c-14.2,0-28.6,7.8-28.6,22.4 c0,13.3,11.6,21.9,24.7,21.9c10,0,15.5-4.5,18.9-9.7h0.5v7.7h14.3v-38.1C733.8,216.1,720.7,206.3,703.7,206.3z M701.9,260.7 c-4.9,0-11.6-2.4-11.6-8.4c0-7.7,8.4-10.6,15.7-10.6c6.5,0,9.6,1.4,13.5,3.3C718.4,254.2,710.4,260.7,701.9,260.7z M786,208.5 l-17,43.1h-0.5l-17.6-43.1h-16l26.5,60.2l-15.1,33.5h15.5l40.8-93.7H786z M652.4,272h14.8v-99.3h-14.8V272z" class="st7"/><path d="M830.4,272v-91.6h11.8l31.9,55.8h0.5l31.9-55.8h11.8V272h-11.8v-54.4l0.5-15.4h-0.5l-28.7,50.3h-6.9 l-28.7-50.3h-0.5l0.5,15.4V272H830.4z" class="st10"/><path d="M987.8,272h-11.3v-8.7H976c-1.8,3-4.5,5.5-8.2,7.6c-3.7,2.1-7.6,3.1-11.6,3.1c-7.9,0-13.8-2.4-17.9-7.2 c-4.1-4.8-6.1-11.2-6.1-19.2v-38.4H944v36.5c0,11.7,5.2,17.5,15.5,17.5c4.9,0,8.8-2,11.9-5.9c3.1-3.9,4.6-8.4,4.6-13.6v-34.6h11.8 V272z" class="st10"/><path d="M1024.1,274c-7,0-12.8-1.7-17.3-5.1c-4.6-3.4-7.9-7.7-10-12.8l10.5-4.4c3.3,7.9,9,11.8,17,11.8 c3.7,0,6.7-0.8,9-2.4c2.3-1.6,3.5-3.8,3.5-6.4c0-4.1-2.9-6.9-8.6-8.3l-12.7-3.1c-4-1-7.8-3-11.4-5.8c-3.6-2.9-5.4-6.7-5.4-11.6 c0-5.5,2.5-10,7.4-13.5c4.9-3.5,10.7-5.2,17.5-5.2c5.5,0,10.5,1.3,14.8,3.8c4.4,2.5,7.5,6.1,9.3,10.8l-10.2,4.2 c-2.3-5.5-7.1-8.3-14.3-8.3c-3.5,0-6.4,0.7-8.8,2.2c-2.4,1.5-3.6,3.4-3.6,5.9c0,3.6,2.8,6,8.3,7.3l12.4,2.9 c5.9,1.4,10.2,3.7,13.1,7c2.8,3.3,4.2,7.1,4.2,11.3c0,5.6-2.3,10.3-6.9,14.1C1037.3,272.2,1031.4,274,1024.1,274z" class="st10"/><path d="M1069.9,193.5c-1.6,1.6-3.6,2.4-5.9,2.4c-2.3,0-4.3-0.8-5.9-2.4c-1.6-1.6-2.4-3.6-2.4-5.9 c0-2.3,0.8-4.3,2.4-5.9c1.6-1.6,3.6-2.4,5.9-2.4c2.3,0,4.3,0.8,5.9,2.4c1.6,1.6,2.4,3.6,2.4,5.9 C1072.4,190,1071.5,191.9,1069.9,193.5z M1069.9,272h-11.8v-62.7h11.8V272z" class="st10"/><path d="M1112.7,274c-9.4,0-17.1-3.2-23.2-9.5c-6.1-6.4-9.1-14.3-9.1-23.9c0-9.6,3-17.5,9.1-23.9 c6.1-6.4,13.8-9.5,23.2-9.5c7,0,12.8,1.7,17.4,5.1c4.6,3.4,8,7.7,10.1,12.9l-10.8,4.5c-3.2-7.8-9.1-11.8-17.5-11.8 c-5.2,0-9.8,2.1-13.8,6.4c-4,4.3-6,9.7-6,16.3c0,6.6,2,12,6,16.3c4,4.3,8.6,6.4,13.8,6.4c8.8,0,14.8-3.9,18.2-11.8l10.5,4.5 c-2.1,5.1-5.6,9.4-10.3,12.9C1125.5,272.3,1119.7,274,1112.7,274z" class="st10"/></svg>
